<?xml version="1.0" standalone="no"?><!DOCTYPE svg PUBLIC "-//W3C//DTD SVG 1.1//EN" "http://www.w3.org/Graphics/SVG/1.1/DTD/svg11.dtd"><svg t="1616505739208" class="icon" viewBox="0 0 1024 1024" version="1.1" xmlns="http://www.w3.org/2000/svg" p-id="2745" xmlns:xlink="http://www.w3.org/1999/xlink" width="200" height="200"><defs><style type="text/css"></style></defs><path d="M798.72 327.68H614.4V143.36L798.72 327.68z" p-id="2746"></path><path d="M757.76 901.12h-491.52A61.44 61.44 0 0 1 204.8 839.68v-655.36A61.44 61.44 0 0 1 266.24 122.88h368.64a19.2512 19.2512 0 0 1 14.336 6.144l163.84 163.84a19.2512 19.2512 0 0 1 6.144 14.336v532.48a61.44 61.44 0 0 1-61.44 61.44zM266.24 163.84a20.48 20.48 0 0 0-20.48 20.48v655.36a20.48 20.48 0 0 0 20.48 20.48h491.52a20.48 20.48 0 0 0 20.48-20.48V315.8016L626.2784 163.84z" p-id="2747"></path><path d="M491.52 368.64h40.96v286.72h-40.96z" p-id="2748"></path><path d="M368.64 491.52h286.72v40.96H368.64z" p-id="2749"></path></svg>