<?xml version="1.0" standalone="no"?><!DOCTYPE svg PUBLIC "-//W3C//DTD SVG 1.1//EN" "http://www.w3.org/Graphics/SVG/1.1/DTD/svg11.dtd"><svg t="1616506734612" class="icon" viewBox="0 0 1024 1024" version="1.1" xmlns="http://www.w3.org/2000/svg" p-id="1603" xmlns:xlink="http://www.w3.org/1999/xlink" width="200" height="200"><defs><style type="text/css"></style></defs><path d="M331.162352 847.656713 889.919259 288.923342c12.44852-12.45466 12.44852-32.69054 0-45.146223l-67.744917-67.734684-67.713194-67.720358c-12.471033-12.472056-32.69054-12.472056-45.170782 0L150.441361 667.186432c-3.585665 2.915399-6.359848 6.898107-7.786337 11.659551L80.811514 884.612393c-2.619664 8.745175-0.024559 17.810644 6.002714 23.843034l1.676176 1.302669 1.300622 1.674129c6.03239 6.02625 15.09786 8.622378 23.845081 6.009877l205.77255-61.850673C324.226383 854.142427 328.231603 851.303776 331.162352 847.656713zM743.159754 164.754345l45.584198 45.584198 44.719504 44.725644c6.243191 6.237051 6.243191 16.35448 0 22.574135l-79.000262 78.999239L641.578194 243.754606l79.000262-79.000262C726.82267 158.518317 736.924749 158.518317 743.159754 164.754345zM138.203642 860.042811l48.523133-161.420413 432.271144-432.279331 112.882953 112.882953L299.578006 811.536051 138.203642 860.042811z" p-id="1604"></path></svg>