<?xml version="1.0" standalone="no"?><!DOCTYPE svg PUBLIC "-//W3C//DTD SVG 1.1//EN" "http://www.w3.org/Graphics/SVG/1.1/DTD/svg11.dtd"><svg t="1616506758904" class="icon" viewBox="0 0 1024 1024" version="1.1" xmlns="http://www.w3.org/2000/svg" p-id="1742" xmlns:xlink="http://www.w3.org/1999/xlink" width="200" height="200"><defs><style type="text/css"></style></defs><path d="M807.633161 606.364181l0 175.599344c0 17.631566-14.295588 31.927153-31.927153 31.927153l-542.761608 0c-17.631566 0-31.927153-14.295588-31.927153-31.927153l0-542.761608c0-17.631566 14.295588-31.927153 31.927153-31.927153l255.417227 0 0-47.89073-271.380804 0c-35.263132 0-63.854307 28.591175-63.854307 63.854307l0 574.688761c0 35.263132 28.591175 63.854307 63.854307 63.854307l574.688761 0c35.263132 0 63.854307-28.591175 63.854307-63.854307l0-191.56292L807.633161 606.364181z" p-id="1743"></path><path d="M898.831232 377.159966l-309.949214-202.554252c-4.880147-3.187599-11.162224-3.469008-16.322757-0.678452-5.15951 2.790556-8.370645 8.176217-8.370645 14.038738l0 115.197672c-155.644873 36.253692-303.307957 185.226608-303.307957 343.108428 0 1.060145 0.296759 7.638981 0.716314 16.633842 0.342808 7.311523 5.629207 13.45443 12.815887 14.888082 7.17133 1.450025 14.404058-2.182712 17.553795-8.792247l0.092098-0.186242c51.134611-107.645672 154.071028-182.53736 272.129864-187.096189l0 111.355157c0 5.861498 3.211135 11.248182 8.370645 14.038738 2.371 1.285273 4.988618 1.924839 7.592932 1.924839 3.039219 0 6.094812-0.87288 8.729825-2.603291l309.949214-202.554252c4.520967-2.947122 7.233752-7.973602 7.233752-13.360286C906.064984 385.134591 903.352199 380.107087 898.831232 377.159966zM596.11577 563.570539 596.11577 449.721585l-31.927153 0 0 0.124843c-108.300588 3.78828-203.971531 62.295811-267.249717 148.738579 22.99369-133.173069 165.060313-249.485121 299.17687-268.949428l0-0.302899L596.11577 297.334919l0-79.863932 264.801968 173.050288L596.11577 563.570539z" p-id="1744"></path></svg>